<svg width="512" height="512" viewBox="0 0 512 512" xmlns="http://www.w3.org/2000/svg">
  <defs>
    <linearGradient id="bg" x1="0" y1="0" x2="512" y2="512" gradientUnits="userSpaceOnUse">
      <stop offset="0" stop-color="#312e81"/>
      <stop offset="0.5" stop-color="#4338CA"/>
      <stop offset="1" stop-color="#7e22ce"/>
    </linearGradient>
  </defs>

  <!-- Background, with safe-zone padding for maskable icons -->
  <rect width="512" height="512" rx="96" fill="url(#bg)"/>

  <!-- Trophy -->
  <g transform="translate(256,200)" fill="#fbbf24">
    <path d="M-70,-90 h140 v70 a70,70 0 0 1 -140,0 z"/>
    <rect x="-14" y="-20" width="28" height="60" />
    <rect x="-50" y="40" width="100" height="22" rx="6"/>
    <path d="M-70,-80 h-34 a8,8 0 0 0 -8,8 v10 a46,46 0 0 0 46,46 z" fill="none" stroke="#fbbf24" stroke-width="12"/>
    <path d="M70,-80 h34 a8,8 0 0 1 8,8 v10 a46,46 0 0 1 -46,46 z" fill="none" stroke="#fbbf24" stroke-width="12"/>
  </g>

  <!-- Table rows -->
  <g transform="translate(140,322)">
    <rect width="232" height="20" rx="6" fill="#ffffff" opacity="0.95"/>
    <rect y="34" width="232" height="20" rx="6" fill="#ffffff" opacity="0.75"/>
    <rect y="68" width="232" height="20" rx="6" fill="#ffffff" opacity="0.55"/>
    <rect width="10" height="88" rx="4" fill="#fbbf24"/>
  </g>
</svg>
